<?xml version="1.0" standalone="no"?>
<!DOCTYPE svg PUBLIC "-//W3C//DTD SVG 20010904//EN"
 "http://www.w3.org/TR/2001/REC-SVG-20010904/DTD/svg10.dtd">
<svg version="1.0" xmlns="http://www.w3.org/2000/svg"
 width="318.000000pt" height="318.000000pt" viewBox="0 0 318.000000 318.000000"
 preserveAspectRatio="xMidYMid meet">
<metadata>
Created by potrace 1.11, written by Peter Selinger 2001-2013
</metadata>
<g transform="translate(0.000000,318.000000) scale(0.100000,-0.100000)"
fill="#000000" stroke="none">
<path d="M1479 3133 c-1 -4 -1 -12 0 -16 1 -5 -4 -5 -11 -1 -21 13 -38 13 -38
1 0 -8 -3 -8 -8 -2 -9 13 -44 16 -36 3 3 -5 -6 -6 -23 -2 -26 7 -27 6 -13 -12
14 -18 14 -18 -6 -1 -11 9 -24 14 -28 10 -4 -5 -12 -9 -17 -9 -5 -1 -10 -2
-11 -4 -2 -1 -16 -4 -33 -6 -16 -3 -32 -8 -35 -12 -6 -8 -19 -11 -55 -14 -14
-1 -28 -10 -31 -20 -6 -19 -24 -25 -24 -8 0 6 5 10 12 10 6 0 9 2 6 5 -12 12
-56 -18 -51 -34 3 -12 2 -12 -7 2 -9 14 -15 16 -26 6 -8 -6 -14 -8 -14 -5 0 4
-9 2 -20 -4 -11 -6 -18 -15 -15 -20 3 -5 -4 -7 -15 -5 -11 2 -20 0 -20 -5 0
-5 -8 -6 -17 -3 -13 5 -15 2 -10 -11 4 -10 3 -15 -4 -11 -5 4 -21 -1 -35 -10
-13 -9 -30 -13 -37 -8 -7 4 -7 0 2 -10 12 -15 12 -17 -3 -11 -9 3 -23 1 -31
-6 -8 -6 -20 -8 -27 -4 -8 5 -8 1 2 -11 14 -17 13 -18 -3 -12 -11 4 -20 1 -24
-9 -3 -8 -12 -13 -20 -9 -10 3 -13 1 -10 -9 4 -10 0 -14 -14 -11 -16 3 -19 0
-15 -12 6 -14 4 -14 -11 -2 -11 9 -14 10 -9 2 6 -12 -5 -18 -26 -14 -5 0 -8
-6 -8 -15 0 -8 4 -13 9 -9 5 3 12 1 15 -4 7 -11 -13 -9 -33 3 -10 6 -12 5 -7
-3 6 -8 2 -11 -10 -9 -12 2 -18 -2 -16 -11 2 -9 -3 -11 -14 -7 -14 5 -15 4 -4
-9 10 -13 9 -15 -9 -15 -24 0 -27 -10 -9 -29 11 -10 10 -12 -2 -9 -9 2 -14 -4
-14 -14 1 -10 -4 -14 -13 -11 -12 5 -11 8 2 23 14 16 14 18 0 24 -10 3 -14 2
-10 -5 9 -13 -14 -41 -27 -33 -6 4 -5 -2 1 -14 14 -26 14 -43 0 -19 -10 17
-12 18 -30 1 -10 -9 -16 -21 -12 -27 4 -7 0 -8 -12 -3 -15 5 -16 4 -5 -9 10
-12 16 -13 26 -4 8 6 14 8 14 4 0 -4 8 -1 18 6 15 13 16 12 3 -3 -7 -10 -17
-16 -21 -13 -5 3 -11 1 -15 -5 -4 -7 -13 -6 -27 1 -16 9 -19 8 -13 -2 6 -9 3
-11 -8 -6 -9 3 -16 3 -16 -1 4 -25 -2 -42 -13 -36 -8 5 -9 2 -4 -11 5 -15 4
-16 -8 -6 -12 10 -14 9 -9 -8 3 -14 0 -23 -11 -27 -12 -4 -14 -10 -6 -18 7 -9
4 -12 -13 -12 -17 1 -23 -5 -25 -26 -2 -16 -8 -28 -13 -28 -6 0 -7 6 -3 13 5
8 3 8 -9 -2 -9 -7 -14 -18 -10 -24 4 -6 0 -8 -11 -4 -9 4 -15 3 -11 -2 9 -15
-14 -63 -27 -55 -6 4 -8 3 -4 -4 3 -5 3 -12 -1 -15 -5 -2 -3 -3 2 -1 6 1 19
-4 30 -12 10 -8 14 -14 9 -14 -6 0 -14 4 -20 9 -5 6 -17 4 -29 -6 -13 -10 -14
-14 -4 -10 9 3 16 0 16 -7 0 -8 -10 -12 -24 -10 -13 1 -21 -2 -17 -7 3 -5 11
-6 17 -2 7 4 6 0 -2 -10 -7 -9 -10 -24 -7 -33 5 -14 4 -15 -9 -4 -13 11 -14
10 -9 -4 4 -11 1 -16 -12 -16 -9 0 -14 -3 -11 -7 4 -3 1 -13 -6 -21 -9 -13 -9
-14 1 -8 6 4 12 2 12 -3 0 -6 -7 -11 -16 -11 -14 0 -14 -1 0 -16 22 -21 20
-27 -5 -13 -13 6 -19 7 -15 1 3 -6 3 -12 -1 -15 -5 -2 -3 -2 4 -1 7 2 15 -2
19 -8 4 -6 3 -8 -3 -5 -6 4 -19 -3 -29 -15 -11 -12 -14 -18 -8 -15 7 4 14 -2
17 -14 4 -16 3 -18 -9 -8 -8 6 -15 9 -15 5 -1 -3 -2 -9 -3 -13 -1 -5 -5 -14
-9 -20 -5 -7 -5 -13 0 -13 4 0 1 -5 -7 -10 -11 -7 -11 -10 -2 -10 7 0 10 -5 7
-10 -4 -6 -11 -7 -17 -4 -7 4 -8 2 -4 -5 4 -6 11 -9 15 -7 4 3 8 -1 8 -8 0 -8
-6 -12 -12 -10 -6 3 -12 -2 -12 -10 0 -8 6 -12 15 -8 10 3 13 1 8 -6 -4 -7
-13 -12 -21 -12 -20 0 -27 -17 -7 -17 9 0 24 6 33 13 13 12 16 12 16 0 0 -8
-5 -14 -11 -13 -6 1 -11 -10 -10 -24 0 -20 -4 -25 -15 -21 -9 3 -12 1 -7 -6 3
-6 3 -13 -2 -16 -4 -2 -8 6 -8 19 0 13 3 22 7 19 4 -2 11 1 14 7 5 7 0 10 -11
7 -11 -2 -19 -12 -19 -23 -1 -11 -5 -26 -9 -34 -6 -9 -5 -12 0 -8 6 3 16 -3
23 -15 7 -11 8 -17 2 -13 -6 3 -11 -1 -11 -10 0 -9 4 -13 10 -10 5 3 10 1 10
-5 0 -7 -6 -10 -12 -7 -7 2 -13 14 -12 26 0 13 -3 18 -9 12 -12 -12 2 -73 15
-65 7 4 8 2 4 -5 -4 -6 -11 -9 -16 -6 -14 9 -23 -16 -11 -28 9 -9 11 -8 8 3
-2 8 -2 11 1 7 2 -4 11 -2 20 5 10 8 13 9 9 1 -4 -6 -4 -13 0 -16 5 -2 3 -3
-2 -1 -6 1 -20 -5 -30 -13 -17 -13 -17 -15 -3 -10 10 4 18 2 18 -3 0 -6 -6
-10 -14 -10 -10 0 -12 -7 -8 -22 4 -16 2 -19 -9 -13 -11 7 -12 6 -2 -7 7 -8
10 -18 6 -21 -10 -11 -12 -57 -2 -57 10 0 8 -28 -4 -47 -5 -7 -4 -13 0 -13 5
0 8 -23 7 -50 0 -47 13 -64 24 -30 3 7 0 10 -5 7 -5 -3 -10 0 -10 8 0 10 4 12
12 5 7 -5 14 -8 16 -5 3 2 5 -4 5 -15 0 -10 -3 -17 -7 -14 -17 10 -30 -26 -21
-60 6 -19 7 -38 4 -42 -4 -4 1 -4 11 -1 21 8 22 3 1 -17 -14 -15 -14 -16 3
-16 14 0 15 -2 4 -9 -11 -7 -10 -11 5 -20 14 -8 15 -11 4 -11 -9 0 -11 -3 -5
-8 6 -4 10 -16 10 -27 0 -11 6 -19 13 -17 9 2 11 -2 5 -10 -11 -18 -4 -50 15
-72 10 -11 11 -16 5 -12 -9 5 -11 2 -7 -8 3 -9 10 -13 15 -10 5 3 6 -2 3 -11
-4 -8 -2 -21 4 -28 6 -6 12 -16 14 -22 1 -5 7 -9 11 -7 5 1 6 -2 3 -7 -8 -13
14 -71 27 -71 6 0 7 -3 4 -7 -4 -3 1 -12 11 -20 11 -10 12 -12 2 -8 -8 4 -6
-2 5 -12 11 -10 21 -27 23 -38 2 -11 10 -25 18 -31 7 -6 11 -14 7 -17 -3 -4
-1 -7 6 -7 7 0 10 -4 7 -9 -4 -5 -3 -11 1 -13 5 -1 16 -16 25 -33 10 -16 23
-29 29 -27 6 2 9 -4 6 -11 -6 -16 78 -114 94 -109 6 1 8 -2 5 -6 -3 -5 3 -20
14 -32 11 -13 20 -20 20 -15 0 4 9 -4 21 -19 21 -26 46 -37 33 -13 -4 7 -3 8
2 4 5 -5 9 -16 9 -25 0 -10 7 -16 17 -16 11 1 14 -4 10 -14 -4 -11 -1 -14 11
-9 10 4 16 2 14 -6 -1 -7 4 -11 11 -9 8 1 11 -1 8 -6 -8 -13 91 -92 114 -92 5
0 10 -4 10 -10 0 -5 7 -10 15 -10 8 0 15 -4 15 -8 0 -5 11 -15 25 -22 20 -11
27 -11 42 1 16 13 17 12 5 -3 -11 -14 -11 -18 5 -26 10 -5 25 -7 33 -4 8 2 12
1 8 -3 -4 -4 8 -16 27 -25 51 -26 67 -31 60 -20 -3 6 -1 10 4 10 6 0 11 -7 11
-15 0 -8 5 -15 11 -15 5 0 7 6 4 13 -4 6 0 4 8 -5 15 -19 33 -25 22 -9 -3 5
-1 13 5 16 6 4 10 3 9 -2 -3 -20 2 -34 11 -28 5 3 10 2 10 -3 0 -5 7 -9 15
-10 8 -1 22 -3 30 -4 8 -1 15 -5 15 -9 0 -3 11 -9 25 -11 16 -3 22 -1 19 6 -3
6 1 3 9 -7 15 -18 32 -24 22 -7 -3 5 -2 10 3 10 6 0 12 -7 16 -15 3 -8 12 -12
21 -9 9 4 15 1 15 -7 0 -11 3 -11 10 1 8 13 11 13 19 1 5 -8 15 -11 23 -8 8 3
21 1 28 -3 8 -5 22 -4 33 2 14 7 17 7 13 -1 -10 -16 6 -13 32 5 22 15 24 15
29 -4 3 -12 12 -19 21 -17 10 2 17 4 17 5 0 1 8 3 18 5 9 2 15 0 12 -5 -3 -4
2 -11 11 -14 10 -4 13 -2 8 6 -5 8 -2 9 9 5 9 -3 19 -2 22 3 4 6 11 10 17 10
6 0 5 -7 -3 -17 -13 -15 -12 -15 6 -6 13 8 25 8 38 1 13 -7 17 -7 13 0 -4 7
10 10 41 8 33 -2 54 2 66 12 16 15 17 14 11 -1 -5 -13 -2 -16 9 -11 10 3 13
12 9 22 -5 15 -4 15 12 0 22 -23 30 -23 21 0 -5 14 -4 15 6 4 16 -15 39 -16
39 -1 0 5 -5 7 -12 3 -7 -4 -8 -3 -4 4 4 6 13 9 21 6 8 -4 12 -11 9 -16 -4 -6
1 -6 13 1 11 6 24 7 28 3 5 -4 5 -1 1 6 -4 7 -11 10 -16 7 -5 -3 -11 -1 -15 4
-5 9 32 7 62 -4 6 -2 19 7 29 20 16 21 19 22 29 8 9 -11 14 -13 19 -5 4 7 12
12 17 12 6 0 7 -4 4 -10 -10 -16 1 -11 16 7 8 10 9 14 2 10 -6 -4 -14 -3 -17
2 -7 10 20 9 30 -2 4 -4 13 -2 20 3 6 6 17 9 22 8 6 -2 18 6 26 17 l16 20 -7
-20 c-5 -16 -1 -15 20 8 30 31 39 34 30 10 -4 -11 -3 -14 5 -9 7 4 12 14 12
22 0 8 5 14 11 14 5 0 7 -4 4 -10 -3 -6 1 -7 10 -4 9 4 14 12 11 19 -2 7 3 12
12 12 44 0 54 4 49 17 -6 15 9 16 30 3 9 -6 11 -3 6 9 -5 13 -3 15 7 9 10 -6
12 -4 7 8 -3 9 -3 16 1 16 4 -1 12 0 17 1 6 1 17 3 25 4 8 0 14 6 13 13 -2 8
4 10 14 6 12 -5 15 -2 10 10 -6 15 -4 16 16 6 20 -11 21 -11 9 4 -12 14 -11
16 8 12 15 -3 20 0 17 9 -4 10 0 12 14 9 11 -3 19 0 19 6 0 7 4 10 8 7 10 -6
62 40 62 55 0 6 5 7 10 4 6 -3 10 1 10 10 0 8 10 20 23 25 14 5 16 9 7 10 -8
1 -4 5 10 9 15 5 24 14 23 25 0 11 4 15 12 12 8 -3 21 7 31 22 17 26 17 27 -2
12 -12 -9 -11 -6 2 6 13 12 20 26 16 30 -4 5 1 2 10 -5 16 -12 19 -10 27 10 5
13 7 27 4 31 -2 4 2 5 10 2 8 -3 18 -1 22 5 3 6 0 11 -7 11 -7 0 -2 6 12 13
15 8 24 20 22 31 -2 11 1 15 7 11 6 -3 11 2 11 12 0 15 2 16 10 3 8 -13 10
-13 10 2 0 9 11 29 25 44 14 15 24 33 21 41 -3 7 0 15 6 19 7 4 8 3 4 -4 -4
-7 -5 -12 -2 -12 3 0 13 14 22 31 11 23 12 29 2 24 -7 -3 -3 2 9 13 17 15 19
22 10 31 -9 10 -9 12 3 9 8 -2 15 4 15 12 0 8 7 20 15 27 13 11 13 12 -2 13
-9 0 -19 4 -22 9 -4 5 3 7 13 4 14 -4 24 3 34 24 8 15 12 34 10 41 -3 6 -1 12
4 12 14 0 35 68 28 93 -5 17 -4 19 4 7 11 -15 12 -13 15 18 1 9 5 23 10 30 4
7 5 25 2 40 -5 20 -4 23 4 12 5 -9 10 -10 10 -3 0 6 3 19 7 29 5 13 3 15 -8 9
-11 -7 -12 -6 -2 6 16 20 24 69 12 69 -6 0 -3 7 5 16 18 17 12 39 -7 27 -7 -3
-5 2 4 13 8 10 15 26 14 34 0 8 4 18 10 22 7 5 7 8 0 8 -12 0 -13 79 -2 97 4
7 -1 16 -10 22 -17 10 -17 10 2 11 11 0 16 4 10 8 -11 8 -15 92 -4 92 9 0 -11
81 -25 99 -8 11 -8 13 2 7 12 -7 13 17 1 39 -3 6 -6 25 -8 44 -1 19 -9 41 -19
48 -9 8 -11 11 -3 7 11 -6 13 -2 7 17 -4 13 -8 30 -8 37 -1 6 -8 12 -17 12
-14 0 -14 2 -1 10 14 9 7 15 -14 11 -5 -1 -4 4 3 13 8 10 9 16 1 21 -6 3 -7
11 -4 17 4 6 -1 17 -11 25 -11 7 -13 13 -7 13 9 0 9 5 0 23 -7 12 -15 24 -18
27 -3 3 -7 14 -8 25 -2 11 -8 25 -14 30 -8 7 -8 6 -3 -4 6 -10 4 -12 -4 -7 -9
6 -9 11 0 22 9 11 9 14 -1 14 -7 0 -10 7 -6 15 5 14 -5 20 -27 16 -5 -1 -6 3
-2 9 8 13 -25 81 -36 74 -5 -3 -9 4 -9 15 0 12 -4 21 -10 21 -5 0 -7 7 -4 15
5 11 2 13 -10 9 -11 -4 -16 -2 -14 7 2 8 -4 13 -12 11 -12 -3 -12 -1 -3 9 10
10 7 17 -13 36 -14 12 -21 23 -17 23 4 0 4 4 -2 8 -5 4 -15 16 -22 27 -6 11
-16 19 -21 18 -5 -1 -9 5 -8 14 0 9 -10 23 -24 30 -14 7 -21 13 -16 13 5 0 3
7 -4 15 -7 8 -17 12 -23 8 -5 -3 -7 -1 -3 5 3 6 -5 19 -19 30 -13 11 -21 22
-18 26 3 3 1 6 -5 6 -7 0 -22 11 -34 25 -11 13 -25 22 -29 20 -4 -3 -10 4 -14
15 -4 11 -11 18 -16 14 -5 -3 -6 -10 -3 -16 4 -7 2 -8 -5 -4 -6 4 -9 11 -6 15
6 11 -30 53 -39 44 -3 -3 -6 0 -6 7 0 7 -3 11 -6 7 -4 -3 -15 4 -25 16 -10 12
-18 18 -19 14 0 -5 -7 -1 -16 7 -8 9 -20 14 -25 10 -5 -3 -8 0 -7 8 2 8 -6 13
-18 12 -16 0 -20 4 -16 15 4 10 1 13 -10 8 -10 -3 -19 0 -22 9 -3 8 -15 14
-26 14 -14 0 -19 4 -14 12 5 7 3 8 -6 3 -7 -4 -16 -2 -21 6 -6 10 -9 11 -9 2
0 -7 -4 -13 -10 -13 -5 0 -7 7 -4 15 8 21 -24 19 -50 -2 -21 -18 -21 -18 -2 4
17 20 17 23 2 29 -9 3 -23 4 -31 1 -8 -4 -17 -1 -21 5 -5 7 -2 8 7 3 8 -5 11
-4 6 1 -5 5 -12 9 -15 9 -4 1 -18 7 -32 14 l-25 14 20 -24 20 -24 -20 15 c-11
8 -23 20 -28 27 -4 7 -14 10 -22 7 -8 -4 -15 -2 -15 4 0 5 -7 13 -16 16 -8 3
-12 2 -9 -4 3 -6 1 -10 -4 -10 -6 0 -11 5 -11 11 0 6 -7 9 -15 5 -8 -3 -15 -2
-15 2 0 4 -17 8 -37 10 -20 1 -41 8 -45 15 -6 9 -8 8 -8 -3 0 -13 -2 -13 -9
-1 -7 11 -10 10 -14 -5 -4 -16 -5 -17 -6 -1 0 9 -9 18 -18 19 -10 0 -25 2 -33
3 -8 1 -21 -3 -28 -9 -7 -5 -12 -5 -11 0 4 21 -2 26 -18 13 -9 -8 -14 -9 -10
-3 4 7 0 14 -8 18 -8 3 -17 1 -21 -5 -4 -6 -12 -5 -22 3 -14 11 -15 10 -9 -7
7 -19 6 -19 -7 -2 -10 14 -15 15 -19 5 -4 -10 -6 -10 -6 1 -1 11 -4 11 -18 0
-9 -8 -14 -9 -11 -4 4 6 -9 11 -33 12 -22 1 -37 -2 -35 -6 6 -9 -48 -6 -63 4
-6 3 -12 3 -12 -2z m186 -32 c3 -5 2 -12 -3 -15 -5 -3 -9 1 -9 9 0 17 3 19 12
6z m150 -1 c-3 -5 -12 -10 -18 -10 -7 0 -6 4 3 10 19 12 23 12 15 0z m-578
-42 c-3 -8 -6 -5 -6 6 -1 11 2 17 5 13 3 -3 4 -12 1 -19z m-215 -60 c-7 -7
-12 -8 -12 -2 0 14 12 26 19 19 2 -3 -1 -11 -7 -17z m943 -26 c-3 -3 -11 0
-18 7 -9 10 -8 11 6 5 10 -3 15 -9 12 -12z m90 -22 c3 -6 -1 -7 -9 -4 -18 7
-21 14 -7 14 6 0 13 -4 16 -10z m40 -10 c3 -6 -1 -7 -9 -4 -18 7 -21 14 -7 14
6 0 13 -4 16 -10z m-1470 -212 c5 4 5 1 1 -6 -6 -10 -11 -10 -22 -1 -8 6 -14
14 -14 16 0 3 6 0 13 -6 8 -6 18 -7 22 -3z m-118 -71 c0 -8 -6 -14 -14 -14 -9
0 -10 4 -2 14 6 7 12 13 14 13 1 0 2 -6 2 -13z m-2 -66 c3 -5 2 -12 -3 -15 -5
-3 -9 1 -9 9 0 17 3 19 12 6z m-30 -11 c3 -6 -1 -7 -9 -4 -18 7 -21 14 -7 14
6 0 13 -4 16 -10z m-18 -16 c-3 -3 -12 -4 -19 -1 -8 3 -5 6 6 6 11 1 17 -2 13
-5z m-52 -83 c3 -5 2 -12 -3 -15 -5 -3 -9 1 -9 9 0 17 3 19 12 6z m-35 -35 c0
-2 -7 -7 -16 -10 -8 -3 -12 -2 -9 4 6 10 25 14 25 6z m40 -22 c0 -8 -19 -13
-24 -6 -3 5 1 9 9 9 8 0 15 -2 15 -3z m-110 -80 c0 -8 -19 -13 -24 -6 -3 5 1
9 9 9 8 0 15 -2 15 -3z m-103 -151 c-4 -3 -1 -13 6 -22 11 -14 10 -14 -5 -2
-16 12 -16 31 -1 31 4 0 3 -3 0 -7z m13 -67 c0 -3 -4 -8 -10 -11 -5 -3 -10 -1
-10 4 0 6 5 11 10 11 6 0 10 -2 10 -4z m-60 -106 c0 -5 -4 -10 -10 -10 -5 0
-10 5 -10 10 0 6 5 10 10 10 6 0 10 -4 10 -10z m-20 -35 c0 -8 -4 -15 -8 -15
-5 0 -9 7 -9 15 0 8 4 15 9 15 4 0 8 -7 8 -15z m-6 -167 c-3 -5 -10 -6 -15 -3
-5 4 -9 1 -9 -6 0 -7 -3 -10 -6 -6 -9 9 3 24 20 24 8 0 13 -4 10 -9z m6 -138
c0 -5 -5 -10 -11 -10 -5 0 -7 5 -4 10 3 6 8 10 11 10 2 0 4 -4 4 -10z m-34
-42 c4 -7 3 -8 -4 -4 -7 4 -12 2 -12 -5 0 -7 -3 -10 -6 -6 -6 5 3 27 11 27 2
0 7 -5 11 -12z m-21 -38 c3 -6 -1 -7 -9 -4 -18 7 -21 14 -7 14 6 0 13 -4 16
-10z m-15 -20 c0 -5 -5 -10 -11 -10 -5 0 -7 5 -4 10 3 6 8 10 11 10 2 0 4 -4
4 -10z m26 -15 c-1 -8 -8 -21 -16 -28 -10 -10 -11 -9 -4 3 5 8 9 18 10 23 3
14 4 17 8 17 2 0 3 -7 2 -15z m-16 -85 c0 -5 -5 -10 -11 -10 -5 0 -7 5 -4 10
3 6 8 10 11 10 2 0 4 -4 4 -10z m-7 -35 c-3 -9 -8 -14 -10 -11 -3 3 -2 9 2 15
9 16 15 13 8 -4z m22 -125 c3 -5 1 -10 -4 -10 -6 0 -11 5 -11 10 0 6 2 10 4
10 3 0 8 -4 11 -10z m50 -120 c-3 -5 -12 -10 -18 -10 -7 0 -6 4 3 10 19 12 23
12 15 0z m10 -99 c3 -5 2 -12 -3 -15 -5 -3 -9 1 -9 9 0 17 3 19 12 6z m2779
-159 c3 -5 -1 -9 -9 -9 -8 0 -12 4 -9 9 3 4 7 8 9 8 2 0 6 -4 9 -8z m-354
-542 c0 -5 -4 -10 -10 -10 -5 0 -10 5 -10 10 0 6 5 10 10 10 6 0 10 -4 10 -10z
m-20 -26 c0 -8 -19 -13 -24 -6 -3 5 1 9 9 9 8 0 15 -2 15 -3z m-135 -34 c-3
-5 -12 -10 -18 -10 -7 0 -6 4 3 10 19 12 23 12 15 0z m-85 -80 c0 -5 -5 -10
-11 -10 -5 0 -7 5 -4 10 3 6 8 10 11 10 2 0 4 -4 4 -10z m-200 -14 c0 -2 -7
-7 -16 -10 -8 -3 -12 -2 -9 4 6 10 25 14 25 6z m120 -20 c0 -2 -7 -7 -16 -10
-8 -3 -12 -2 -9 4 6 10 25 14 25 6z m-129 -59 c-10 -9 -11 -8 -5 6 3 10 9 15
12 12 3 -3 0 -11 -7 -18z m-21 -21 c0 -2 -8 -10 -17 -17 -16 -13 -17 -12 -4 4
13 16 21 21 21 13z m-535 -45 c3 -5 2 -12 -3 -15 -5 -3 -9 1 -9 9 0 17 3 19
12 6z m-218 -26 c0 -8 -4 -12 -9 -9 -5 3 -6 10 -3 15 9 13 12 11 12 -6z m403
0 c0 -2 -9 -3 -19 -2 -11 0 -18 5 -15 9 4 6 34 0 34 -7z m-80 -15 c0 -5 -5
-10 -11 -10 -5 0 -7 5 -4 10 3 6 8 10 11 10 2 0 4 -4 4 -10z m40 -4 c0 -2 -7
-7 -16 -10 -8 -3 -12 -2 -9 4 6 10 25 14 25 6z"/>
<path d="M1975 90 c-3 -5 -1 -10 4 -10 6 0 11 5 11 10 0 6 -2 10 -4 10 -3 0
-8 -4 -11 -10z"/>
<path d="M1420 45 c-8 -9 -8 -15 -2 -15 12 0 26 19 19 26 -2 2 -10 -2 -17 -11z"/>
</g>
</svg>
